<?xml version="1.0" standalone="no"?>
<!DOCTYPE svg PUBLIC "-//W3C//DTD SVG 20010904//EN"
 "http://www.w3.org/TR/2001/REC-SVG-20010904/DTD/svg10.dtd">
<svg version="1.0" xmlns="http://www.w3.org/2000/svg"
 width="287.000000pt" height="138.000000pt" viewBox="0 0 287.000000 138.000000"
 preserveAspectRatio="xMidYMid meet">
<metadata>
Created by potrace 1.10, written by Peter Selinger 2001-2011
</metadata>
<g transform="translate(0.000000,138.000000) scale(0.100000,-0.100000)"
fill="#000000" stroke="none">
<path d="M2390 753 l0 -383 78 0 77 0 0 383 0 382 -77 0 -78 0 0 -382z m120
-3 l0 -350 -45 0 -45 0 0 350 0 350 45 0 45 0 0 -350z"/>
<path d="M423 1110 c-57 -12 -95 -33 -131 -74 -28 -32 -49 -73 -40 -81 1 -1
31 -17 66 -34 44 -22 62 -27 62 -17 0 24 40 66 73 74 99 27 167 -70 98 -139
-22 -21 -39 -29 -65 -29 l-36 0 0 -55 c0 -53 1 -55 24 -49 29 7 79 -17 100
-48 9 -12 16 -39 16 -60 0 -52 -33 -88 -89 -95 -58 -8 -103 16 -126 67 l-18
39 -71 -36 c-39 -19 -72 -37 -74 -38 -7 -6 20 -47 56 -87 60 -66 102 -83 212
-83 83 0 102 3 145 26 61 31 113 96 122 152 l6 41 14 -48 c19 -66 91 -137 162
-161 68 -22 169 -17 227 13 55 28 122 105 131 151 l7 36 8 -41 c11 -55 70
-121 132 -150 60 -28 142 -32 205 -9 22 8 41 10 41 5 0 -6 35 -10 78 -10 l77
0 -3 227 -3 228 -72 0 c-40 0 -74 -3 -77 -7 -3 -3 -33 1 -67 10 -51 14 -72 14
-117 5 -63 -13 -128 -53 -154 -95 l-19 -30 -5 85 c-7 106 -42 190 -104 247
-58 54 -106 72 -187 73 -55 0 -78 -5 -124 -29 -110 -56 -167 -166 -168 -325 0
-74 -2 -82 -11 -59 -7 15 -23 36 -38 47 -23 18 -24 22 -10 34 63 52 63 185 1
256 -54 62 -160 92 -254 73z m178 -53 c64 -34 89 -76 89 -152 0 -50 -5 -67
-25 -95 -14 -19 -25 -39 -25 -45 0 -6 22 -32 49 -59 44 -44 50 -47 59 -30 5
11 12 59 15 109 13 186 110 295 264 295 149 0 245 -103 263 -282 5 -51 13 -86
24 -96 15 -15 19 -13 53 22 55 56 107 79 178 79 33 -1 73 -6 88 -12 27 -10 27
-12 13 -33 -13 -18 -24 -21 -66 -19 -58 3 -95 -15 -128 -63 -66 -97 19 -236
135 -222 36 5 43 2 57 -19 16 -24 15 -24 -22 -34 -121 -34 -233 12 -287 119
-14 27 -29 51 -35 55 -5 3 -25 -19 -44 -49 -61 -94 -130 -136 -225 -136 -109
0 -186 47 -237 144 -40 77 -43 76 -90 -27 -43 -97 -185 -142 -320 -102 -48 14
-104 58 -125 97 -8 15 -3 21 33 39 l44 21 45 -46 c42 -42 50 -46 95 -46 123 0
183 119 110 215 -14 18 -42 39 -61 45 -39 13 -51 50 -15 50 11 0 34 13 51 28
26 23 32 38 37 81 4 45 1 55 -19 78 -56 60 -134 61 -194 3 -32 -31 -33 -31
-64 -16 -38 20 -39 35 -2 70 62 59 201 76 282 33z m1204 -358 c4 -50 4 -138 0
-195 l-7 -104 -55 0 -55 0 8 28 c11 35 12 310 1 340 -8 21 -6 22 46 22 l55 0
7 -91z m-126 -106 c0 -176 -1 -178 -17 -135 -16 40 -18 42 -47 35 -74 -18
-126 4 -152 65 -19 46 -5 101 34 131 28 23 91 28 124 10 18 -9 22 -6 36 30 9
23 18 41 20 41 1 0 3 -80 2 -177z"/>
<path d="M959 977 c-19 -12 -45 -44 -59 -72 -23 -45 -25 -62 -25 -170 0 -108
2 -125 25 -170 30 -60 78 -95 131 -95 52 0 111 53 133 117 21 62 22 233 1 294
-38 108 -126 149 -206 96z m141 -37 c43 -46 55 -92 55 -210 0 -88 -4 -112 -23
-151 -57 -117 -187 -97 -223 34 -14 55 -14 191 1 247 7 25 26 58 45 77 27 27
41 33 75 33 34 0 47 -6 70 -30z"/>
<path d="M1730 1103 c-59 -21 -79 -96 -40 -146 39 -49 116 -42 145 14 19 35
19 53 1 88 -21 39 -67 58 -106 44z m75 -87 c0 -45 -2 -50 -27 -57 -40 -10 -72
10 -76 49 -5 47 13 64 62 60 l41 -3 0 -49z"/>
<path d="M1980 827 c-47 -15 -116 -86 -129 -133 -17 -61 -13 -163 8 -209 36
-78 111 -125 198 -125 47 0 133 33 133 51 0 5 5 9 10 9 6 0 10 -11 10 -25 0
-24 2 -25 75 -25 l75 0 0 228 0 227 -75 0 c-73 0 -75 -1 -75 -24 0 -23 -1 -23
-19 -7 -45 41 -139 56 -211 33z m173 -48 c45 -23 66 -24 73 -4 4 11 21 15 55
15 l49 0 0 -195 0 -195 -42 0 c-33 0 -47 5 -63 25 l-20 26 -39 -27 c-42 -29
-104 -40 -161 -30 -82 16 -163 136 -151 225 21 151 166 229 299 160z"/>
<path d="M2055 726 c-51 -22 -85 -71 -85 -122 0 -25 7 -58 15 -74 54 -104 208
-87 246 28 21 64 -14 142 -77 168 -41 17 -60 17 -99 0z m95 -31 c39 -20 60
-53 60 -92 0 -70 -43 -113 -113 -113 -74 0 -125 84 -92 153 16 35 62 66 98 67
10 0 31 -7 47 -15z"/>
<path d="M2604 526 c-38 -38 -43 -70 -19 -116 19 -37 43 -50 90 -50 98 0 131
141 44 186 -45 23 -78 17 -115 -20z m112 -17 c17 -14 19 -90 2 -107 -19 -19
-76 -14 -98 8 -43 43 -8 122 52 114 17 -2 36 -9 44 -15z"/>
<path d="M1950 236 c0 -19 -4 -22 -24 -19 -18 4 -29 -2 -41 -21 -16 -24 -16
-28 -1 -51 12 -19 24 -24 51 -23 l35 1 0 69 c0 39 -4 68 -10 68 -5 0 -10 -11
-10 -24z m-5 -66 c0 -18 -6 -26 -23 -28 -24 -4 -38 18 -28 44 3 9 15 14 28 12
17 -2 23 -10 23 -28z"/>
<path d="M510 185 c0 -42 4 -65 11 -65 8 0 10 15 7 45 -3 25 -3 45 1 45 3 0
20 -20 36 -45 17 -24 33 -45 38 -45 4 0 6 30 5 68 l-1 67 -6 -54 -6 -54 -35
51 c-19 29 -38 52 -42 52 -5 0 -8 -29 -8 -65z"/>
<path d="M1400 185 c0 -41 4 -65 11 -65 7 0 10 17 7 45 -4 50 3 57 20 20 15
-32 23 -31 44 3 l17 27 1 -47 c0 -27 5 -48 10 -48 6 0 10 28 10 65 0 36 -4 65
-8 65 -5 0 -17 -16 -28 -35 -10 -19 -21 -35 -24 -35 -3 0 -14 16 -24 35 -11
19 -23 35 -28 35 -4 0 -8 -29 -8 -65z"/>
<path d="M2110 240 c0 -5 5 -10 10 -10 6 0 10 5 10 10 0 6 -4 10 -10 10 -5 0
-10 -4 -10 -10z"/>
<path d="M766 204 c-21 -20 -20 -48 0 -69 18 -17 55 -17 61 1 2 7 -8 9 -27 6
-22 -3 -30 0 -30 11 0 10 9 15 31 13 37 -1 47 15 24 38 -21 20 -39 20 -59 0z
m54 -15 c0 -5 -11 -9 -25 -9 -26 0 -34 15 -12 23 16 5 37 -3 37 -14z"/>
<path d="M970 213 c0 -4 7 -27 16 -50 17 -43 34 -49 34 -12 0 28 17 23 24 -7
8 -32 17 -24 39 34 19 49 4 58 -16 10 -13 -31 -14 -32 -21 -10 -4 12 -11 22
-16 22 -4 0 -11 -10 -15 -22 -6 -22 -7 -21 -17 10 -10 28 -28 45 -28 25z"/>
<path d="M1672 208 c-17 -17 -15 -63 2 -78 19 -15 58 -9 64 9 3 10 0 11 -14 3
-12 -7 -25 -7 -36 -1 -29 16 -20 28 16 22 40 -6 51 6 30 35 -17 24 -44 28 -62
10z m53 -18 c4 -6 -7 -10 -25 -10 -18 0 -29 4 -25 10 3 6 15 10 25 10 10 0 22
-4 25 -10z"/>
<path d="M2110 170 c0 -27 5 -50 10 -50 6 0 10 23 10 50 0 28 -4 50 -10 50 -5
0 -10 -22 -10 -50z"/>
<path d="M2275 204 c-33 -34 -12 -78 39 -79 l36 -2 0 46 c0 44 -1 46 -30 48
-16 1 -36 -5 -45 -13z m60 -34 c0 -18 -6 -26 -23 -28 -13 -2 -25 3 -28 12 -10
26 4 48 28 44 17 -2 23 -10 23 -28z"/>
</g>
</svg>
